<?xml version="1.0" encoding="iso-8859-1"?>
<!-- Uploaded to: SVG Repo, www.svgrepo.com, Generator: SVG Repo Mixer Tools -->
<!DOCTYPE svg PUBLIC "-//W3C//DTD SVG 1.1//EN" "http://www.w3.org/Graphics/SVG/1.1/DTD/svg11.dtd">
<svg version="1.1" id="Capa_1" xmlns="http://www.w3.org/2000/svg" xmlns:xlink="http://www.w3.org/1999/xlink" 
	 viewBox="0 0 377.829 377.829" xml:space="preserve">
<g>
	
		<path style="fill-rule:evenodd;clip-rule:evenodd;stroke:#000000;stroke-width:10;stroke-linecap:round;stroke-linejoin:round;stroke-miterlimit:10;" d="
		M19.876,141.384c0,0-0.168-0.073-0.264-0.114l0,0C19.7,141.308,19.788,141.346,19.876,141.384z"/>
	<path d="M377.262,154.38c-1.345-20.901-3.689-23.508-4.459-24.365c-1.354-1.506-3.48-2.046-5.392-1.368
		c-0.038,0.014-0.077,0.028-0.115,0.042c-1.307-10.636-3.249-20.394-5.875-29.566c-4.532-15.834-10.475-27.916-18.699-38.023
		c-0.509-0.625-1.321-1.557-2.498-2.417c-1.766-1.291-4.166-1.285-5.926,0.018c-1.248,0.924-1.967,2.349-2.022,3.837
		c-6.262-8.561-14.488-15.781-24.598-21.568c-0.735-0.42-1.531-0.898-2.397-1.417c-6.89-4.124-18.094-10.822-38.029-14.361
		c-22.007-10.421-46.588-16.263-72.512-16.263c-51.031,0-96.878,22.606-128.065,58.325c-0.288,0.115-0.563,0.227-0.814,0.332
		c-2.524-2.321-7.168-7.824-8.986-11.28c-3.854-7.323-5.751-15.356-7.104-22.266c-0.098-0.489-0.226-0.897-0.339-1.257l-0.14-0.452
		c-0.486-1.645-1.783-2.925-3.434-3.392c-1.649-0.464-3.426-0.054-4.702,1.093c-1.925,1.729-3.606,3.62-5.29,5.945
		c-5.643,7.783-9.382,16.9-11.764,28.693c-2.057,10.185-3.003,21.116-2.892,33.416c0.008,0.871-0.139,1.395-0.58,2.074
		c-5.631,8.66-12.735,20.256-17.739,33.18c-3.664,9.463-2.82,19.621-2.782,20.048c0.162,1.838,1.323,3.438,3.02,4.161
		c1.698,0.722,3.656,0.452,5.094-0.704l8.223-6.613c-1.106,11.935-2.572,29.122-2.374,37.29
		c1.181,48.688,20.368,94.214,54.028,128.191c33.978,34.298,79.247,53.188,127.47,53.188c24.482,0,48.238-4.794,70.605-14.247
		c33.976-12.4,61.185-35.032,80.886-67.276c16.898-25.552,27.081-55.193,29.448-85.653
		C377.957,186.149,378.223,169.335,377.262,154.38z M256.741,42.353c0.239,0.133,0.483,0.257,0.721,0.393
		c1.098,0.631,2.074,1.249,2.949,1.869c-0.388,0.006-0.776,0.016-1.165,0.026c-4.671,0.129-12.237,2.987-13.707,3.559
		c-1.997,0.777-3.276,2.741-3.182,4.882c0.096,2.141,1.545,3.983,3.603,4.58c0.776,0.225,1.666,0.502,1.886,0.586
		c8.872,3.589,16.458,7.089,23.188,10.698c9.593,5.144,20.629,11.665,29.749,21.028c6.227,6.392,10.215,13.115,12.163,20.515
		c-1.816-0.956-3.807-1.755-5.981-2.405c-0.859-0.255-1.709-0.485-2.663-0.485c-1.705,0-3.263,0.751-4.274,2.06
		c-1.67,2.163-1.039,4.579-0.736,5.739c3.023,11.591,4.793,21.231,5.566,30.34c0.841,9.89,0.646,17.584,0.061,23.37
		c-3.022-4.948-6.801-8.309-6.99-8.476c-1.574-1.387-3.847-1.645-5.691-0.644c-1.844,1.001-2.867,3.046-2.563,5.122
		c0.005,0.034,0.5,3.408,0.668,4.877c1.09,9.579,1.138,19.889,0.148,31.519c-0.93,10.91-3.22,20.507-6.963,29.113
		c0.065-3.509-0.111-5.719-0.13-5.942c-0.174-2.045-1.577-3.778-3.543-4.368c-1.959-0.59-4.089,0.077-5.361,1.689
		c0,0-1.209,1.532-1.635,2.119c-9.1,12.6-17.78,21.873-27.317,29.182c-11.338,8.69-22.635,13.624-34.536,15.083
		c-3.477,0.426-6.456,0.465-9.262,0.126c-1.674-0.202-3.296-0.281-4.864-0.358c-2.122-0.104-4.126-0.202-5.978-0.591
		c-5.912-1.245-11.207-2.893-16.186-5.039c-7.729-3.332-15.238-7.554-22.732-12.792c11.006-0.725,21.575-3.354,31.501-7.841
		c4.702-2.125,9.019-4.648,12.621-6.835c4.255-2.583,8.129-5.531,11.875-8.381c0.836-0.636,1.672-1.272,2.513-1.905
		c0.274-0.207,0.631-0.398,1.367-0.398c0.646,0,1.464,0.152,2.424,0.449c3.828,1.189,7.761,0.17,10.755-2.808
		c2.656-2.643,3.316-6.439,1.766-10.155c-0.134-0.319-0.299-0.623-0.495-0.908c-6.501-9.45-17.577-15.6-22.062-16.792
		c-10.317-2.745-20.708-1.297-30.776,4.333c-3.692,2.064-8.624,4.537-14.028,5.347c-6.796,1.021-13.245-0.39-19.297-4.203
		c-7.665-4.83-14.169-11.505-19.33-19.842c-1.162-1.877-1.924-3.442-1.864-4.98c0.023-0.589,0.151-1.065,0.739-1.756
		c1.728-2.03,3.771-2.684,6.958-2.351c7.121,0.747,14.103,3.036,20.096,5.126c1.271,0.443,2.275,0.794,3.512,0.794
		c4.917,0,5.724-4.782,5.988-6.351c1.369-8.092,0.203-16.302-3.469-24.403c-0.436-0.96-1.055-2.302-1.641-3.564
		c5.382-4.119,16.909-12.723,24.571-18.409c1.33-0.987,2.085-2.569,2.016-4.224c-0.068-1.655-0.953-3.168-2.361-4.041
		c-8.652-5.362-32.699-21.351-39.968-30.812c-0.092-0.12-0.164-0.219-0.219-0.299c3.962-16.156,19.501-30.989,25.08-34.203
		c1.901-1.095,2.866-3.302,2.379-5.442c-0.486-2.14-2.312-3.712-4.5-3.876c-0.286-0.021-0.592-0.034-0.916-0.034
		c-7.863,0-26.939,7.742-27.126,7.82c-0.043,0.019-0.087,0.038-0.13,0.057c-9.081,4.12-16.318,9.145-22.058,15.328
		c-2.429-0.841-4.9-1.504-7.542-1.736c25.795-20.938,58.645-33.505,94.379-33.505C216.839,28.929,237.835,33.736,256.741,42.353z"/>
</g>
</svg>